<?xml version="1.0" standalone="no"?><!DOCTYPE svg PUBLIC "-//W3C//DTD SVG 1.1//EN" "http://www.w3.org/Graphics/SVG/1.1/DTD/svg11.dtd"><svg t="1565343405682" class="icon" viewBox="0 0 1024 1024" version="1.1" xmlns="http://www.w3.org/2000/svg" p-id="4214" xmlns:xlink="http://www.w3.org/1999/xlink" width="32" height="32"><defs><style type="text/css"></style></defs><path d="M713.123 600.749c-10.877-12.076-29.462-13.049-41.55-2.183L553.145 704.668 410.37 514.515a29.378 29.378 0 0 0-21.579-11.728c-8.604-0.461-16.923 2.589-22.96 8.71L12.237 869.635c-11.422 11.579-11.308 30.209 0.289 41.619 5.724 5.665 13.205 8.481 20.687 8.481 7.595 0 15.22-2.932 20.976-8.77l224.255-227.129 156.469 208.447c5.786 7.735 14.62 11.787 23.596 11.787 6.158 0 12.342-1.93 17.635-5.895 13.037-9.743 15.683-28.194 5.902-41.191L320.273 641.477l63.484-64.295 141.536 188.512a29.412 29.412 0 0 0 20.687 11.641c8.173 0.69 16.402-1.868 22.559-7.389l120.502-107.964 206.247 228.404c10.874 12.076 29.491 13.025 41.604 2.131 12.086-10.865 13.037-29.494 2.131-41.563l-225.9-250.202z m-2.244-361.358c16.286 0 29.465-13.162 29.465-29.434v-76.26c0-16.271-13.18-29.434-29.465-29.434-16.283 0-29.462 13.162-29.462 29.434v76.26c0 16.272 13.179 29.434 29.462 29.434z m0 288.344c63.159 0 114.545-51.307 114.545-114.404 0-63.095-51.386-114.434-114.545-114.434-63.157 0-114.545 51.339-114.545 114.434-0.001 63.098 51.388 114.404 114.545 114.404z m0-169.969c30.672 0 55.619 24.922 55.619 55.565 0 30.611-24.947 55.536-55.619 55.536s-55.617-24.924-55.617-55.536c0-30.642 24.945-55.565 55.617-55.565z m-279.905 76.289h76.334c16.288 0 29.465-13.169 29.465-29.434 0-16.269-13.177-29.436-29.465-29.436h-76.334c-16.286 0-29.465 13.169-29.465 29.436 0 16.266 13.18 29.434 29.465 29.434z m559.809-58.871h-76.334c-16.286 0-29.462 13.169-29.462 29.436 0 16.266 13.177 29.434 29.462 29.434h76.334c16.286 0 29.465-13.169 29.465-29.434 0.001-16.268-13.179-29.436-29.465-29.436z m-444.689-84.853a29.401 29.401 0 0 0 20.836 8.624 29.398 29.398 0 0 0 20.831-8.624c11.508-11.498 11.508-30.124 0-41.625l-59.615-59.561c-11.513-11.495-30.157-11.495-41.665 0-11.508 11.501-11.508 30.124 0 41.627l59.614 59.558z m287.905 245.97c-11.506 11.503-11.506 30.127 0 41.625l59.618 59.557a29.384 29.384 0 0 0 20.833 8.626 29.391 29.391 0 0 0 20.831-8.626c11.508-11.495 11.508-30.122 0-41.619l-59.615-59.563c-11.514-11.499-30.158-11.499-41.666 0z m-292.248 0l-28.83 28.804c-11.513 11.498-11.513 30.127 0 41.621 5.753 5.75 13.291 8.626 20.833 8.626a29.387 29.387 0 0 0 20.829-8.626l28.83-28.802c11.508-11.498 11.508-30.122 0-41.625-11.507-11.498-30.154-11.498-41.662 0.001z m313.081-237.347a29.397 29.397 0 0 0 20.833-8.624l59.615-59.557c11.508-11.503 11.508-30.127 0-41.627-11.506-11.495-30.154-11.495-41.663 0l-59.618 59.561c-11.506 11.501-11.506 30.127 0 41.625a29.4 29.4 0 0 0 20.834 8.623z" p-id="4215" fill="#1296db"></path></svg>